<?xml version="1.0" encoding="UTF-8"?>
<!-- Created with Inkscape (http://www.inkscape.org/) -->
<svg width="1920" height="487.43" version="1.1" viewBox="0 0 1920 487.43" xmlns="http://www.w3.org/2000/svg" xmlns:cc="http://creativecommons.org/ns#" xmlns:rdf="http://www.w3.org/1999/02/22-rdf-syntax-ns#">
 <defs>
  <clipPath id="clipath_lpe_path-effect1707-9">
   <path d="m319.97 259.37v171.3c0-136.23 110.44-246.67 246.67-246.67h-171.3a75.37 75.37 0 0 0-75.37 75.37zm246.67-75.37v493.33c136.23 1e-5 246.67-110.44 246.67-246.67s-110.44-246.67-246.67-246.67zm0 493.33c-136.23 0-246.67-110.44-246.67-246.67v417.96a75.37 75.37 0 0 0 75.37 75.37h95.926a75.37 75.37 0 0 0 75.37-75.37z" display="none" fill="#fff"/>
   <path class="powerclip" d="m-5-5h1090v1090h-1090zm324.97 264.37v171.3c0-136.23 110.44-246.67 246.67-246.67h-171.3a75.37 75.37 0 0 0-75.37 75.37zm246.67-75.37v493.33c136.23 1e-5 246.67-110.44 246.67-246.67s-110.44-246.67-246.67-246.67zm0 493.33c-136.23 0-246.67-110.44-246.67-246.67v417.96a75.37 75.37 0 0 0 75.37 75.37h95.926a75.37 75.37 0 0 0 75.37-75.37z" fill="#fff"/>
  </clipPath>
 </defs>
 <g transform="scale(.45132)" fill="#1d7874">
  <path d="m250 0h580a250 250 45 0 1 250 250v580a250 250 135 0 1-250 250h-580a250 250 45 0 1-250-250v-580a250 250 135 0 1 250-250z" clip-path="url(#clipath_lpe_path-effect1707-9)" fill="#1d7874"/>
 </g>
 <g transform="matrix(1.7796 0 0 1.7796 -1.9183 -1.9183)" fill="#32231b" stroke-width="5.4107" aria-label="Puggit">
  <path d="m360.97 215.37v-151.5h65.578q20.344 0 35.061 6.7093 14.717 6.4928 22.725 18.829 8.0078 12.336 8.0078 29.434 0 16.881-8.0078 29.218-8.0078 12.336-22.725 19.046-14.717 6.4928-35.061 6.4928h-46.099l15.583-15.799v57.57zm35.061-53.674-15.583-16.665h44.151q16.232 0 24.24-6.9257 8.0078-6.9257 8.0078-19.262 0-12.553-8.0078-19.479-8.0078-6.9257-24.24-6.9257h-44.151l15.583-16.665z"/>
  <path d="m560.36 217.1q-14.501 0-25.971-5.6271-11.254-5.6271-17.531-17.098-6.2764-11.687-6.2764-29.651v-65.794h33.763v60.816q0 14.501 6.06 21.426 6.2764 6.7093 17.531 6.7093 7.7914 0 13.851-3.2464 6.06-3.4628 9.5228-10.389 3.4628-7.1421 3.4628-17.747v-57.57h33.763v116.44h-32.031v-32.031l5.8436 9.3064q-5.8436 12.12-17.314 18.396-11.254 6.06-24.673 6.06z"/>
  <path d="m708.88 259.09q-16.449 0-31.815-4.1121-15.15-3.8957-25.322-11.904l13.419-24.24q7.3586 6.06 18.613 9.5228 11.471 3.6793 22.509 3.6793 17.964 0 25.971-8.0078 8.2243-8.0078 8.2243-23.807v-17.531l2.1643-29.218-0.43286-29.434v-25.106h32.031v96.96q0 32.464-16.881 47.831t-48.48 15.366zm-5.1943-49.346q-16.232 0-29.434-6.9257-12.986-7.1421-20.994-19.695-7.7914-12.769-7.7914-29.651 0-17.098 7.7914-29.651 8.0078-12.769 20.994-19.695 13.202-6.9257 29.434-6.9257 14.717 0 25.971 6.06 11.254 5.8436 17.531 18.396 6.2764 12.336 6.2764 31.815 0 19.262-6.2764 31.815-6.2764 12.336-17.531 18.396-11.254 6.06-25.971 6.06zm6.7093-27.703q8.8735 0 15.799-3.4628 6.9257-3.6793 10.821-10.172t3.8957-14.934q0-8.6571-3.8957-14.934-3.8957-6.4928-10.821-9.9557-6.9257-3.6793-15.799-3.6793-8.8736 0-15.799 3.6793-6.9257 3.4628-11.038 9.9557-3.8957 6.2764-3.8957 14.934 0 8.4407 3.8957 14.934 4.1121 6.4928 11.038 10.172 6.9257 3.4628 15.799 3.4628z"/>
  <path d="m854.59 259.09q-16.449 0-31.815-4.1121-15.15-3.8957-25.322-11.904l13.419-24.24q7.3586 6.06 18.613 9.5228 11.471 3.6793 22.509 3.6793 17.964 0 25.971-8.0078 8.2243-8.0078 8.2243-23.807v-17.531l2.1643-29.218-0.43286-29.434v-25.106h32.031v96.96q0 32.464-16.881 47.831t-48.48 15.366zm-5.1943-49.346q-16.232 0-29.434-6.9257-12.986-7.1421-20.994-19.695-7.7914-12.769-7.7914-29.651 0-17.098 7.7914-29.651 8.0078-12.769 20.994-19.695 13.202-6.9257 29.434-6.9257 14.717 0 25.971 6.06 11.254 5.8436 17.531 18.396 6.2764 12.336 6.2764 31.815 0 19.262-6.2764 31.815-6.2764 12.336-17.531 18.396-11.254 6.06-25.971 6.06zm6.7093-27.703q8.8735 0 15.799-3.4628 6.9257-3.6793 10.821-10.172 3.8957-6.4928 3.8957-14.934 0-8.6571-3.8957-14.934-3.8957-6.4928-10.821-9.9557-6.9257-3.6793-15.799-3.6793-8.8736 0-15.799 3.6793-6.9257 3.4628-11.038 9.9557-3.8957 6.2764-3.8957 14.934 0 8.4407 3.8957 14.934 4.1121 6.4928 11.038 10.172 6.9257 3.4628 15.799 3.4628z"/>
  <path d="m945.55 215.37v-116.44h33.763v116.44zm16.881-132.67q-9.3064 0-15.15-5.4107-5.8436-5.4107-5.8436-13.419t5.8436-13.419q5.8436-5.4107 15.15-5.4107t15.15 5.1943q5.8436 4.9778 5.8436 12.986 0 8.4407-5.8436 14.068-5.6271 5.4107-15.15 5.4107z"/>
  <path d="m1052.5 217.1q-20.561 0-32.031-10.389-11.471-10.605-11.471-31.382v-102.15h33.763v101.72q0 7.3586 3.8957 11.471 3.8957 3.8957 10.605 3.8957 8.0078 0 13.635-4.3286l9.09 23.807q-5.1943 3.6793-12.553 5.6271-7.1421 1.7314-14.934 1.7314zm-61.466-89.601v-25.971h80.728v25.971z"/>
 </g>
 <metadata>
  <rdf:RDF>
   <cc:Work rdf:about=""/>
  </rdf:RDF>
 </metadata>
</svg>
